<svg xmlns="http://www.w3.org/2000/svg" width="1024" height="1024" viewBox="0 0 1024 1024">
  <title>CopySpeed – App-Icon (dark)</title>
  <defs>
    <linearGradient id="bg" x1="0" y1="0" x2="0" y2="1">
      <stop offset="0" stop-color="#2A2E37"/><stop offset="1" stop-color="#111318"/>
    </linearGradient>
    <linearGradient id="fill" x1="322" y1="735" x2="760" y2="442" gradientUnits="userSpaceOnUse">
      <stop offset="0" stop-color="#2F6BF5"/><stop offset="1" stop-color="#36C2FF"/>
    </linearGradient>
  </defs>
  <!-- Schatten (ohne Filter, damit jeder Renderer ihn kann) -->
  <rect x="100" y="112" width="824" height="824" rx="185" fill="#000000" fill-opacity="0.10"/>
  <rect x="100" y="106" width="824" height="824" rx="185" fill="#000000" fill-opacity="0.08"/>
  <!-- Grundform -->
  <rect x="100" y="100" width="824" height="824" rx="185" fill="url(#bg)"/>
  <rect x="100.5" y="100.5" width="823" height="823" rx="184.5" fill="none" stroke="#FFFFFF" stroke-opacity="0.10" stroke-width="1"/>
  <!-- Skala = Fortschrittsbalken -->
  <path d="M 322.5 734.5 A 268 268 0 1 1 701.5 734.5" fill="none" stroke="#353B47" stroke-width="62" stroke-linecap="round"/>
  <path d="M 322.5 734.5 A 268 268 0 1 1 759.6 442.4" fill="none" stroke="url(#fill)" stroke-width="62" stroke-linecap="round"/>
  <!-- Teilstriche -->
    <line x1="386.1" y1="670.9" x2="367.0" y2="690.0" stroke="#6B7385" stroke-width="10" stroke-linecap="round"/>
    <line x1="342.7" y1="600.0" x2="325.6" y2="605.6" stroke="#6B7385" stroke-width="6" stroke-linecap="round"/>
    <line x1="336.2" y1="517.2" x2="318.4" y2="514.3" stroke="#6B7385" stroke-width="6" stroke-linecap="round"/>
    <line x1="368.0" y1="440.4" x2="353.4" y2="429.8" stroke="#6B7385" stroke-width="6" stroke-linecap="round"/>
    <line x1="431.2" y1="386.4" x2="423.0" y2="370.4" stroke="#6B7385" stroke-width="6" stroke-linecap="round"/>
    <line x1="512.0" y1="367.0" x2="512.0" y2="340.0" stroke="#6B7385" stroke-width="10" stroke-linecap="round"/>
    <line x1="592.8" y1="386.4" x2="601.0" y2="370.4" stroke="#6B7385" stroke-width="6" stroke-linecap="round"/>
    <line x1="656.0" y1="440.4" x2="670.6" y2="429.8" stroke="#6B7385" stroke-width="6" stroke-linecap="round"/>
    <line x1="687.8" y1="517.2" x2="705.6" y2="514.3" stroke="#6B7385" stroke-width="6" stroke-linecap="round"/>
    <line x1="681.3" y1="600.0" x2="698.4" y2="605.6" stroke="#6B7385" stroke-width="6" stroke-linecap="round"/>
    <line x1="637.9" y1="670.9" x2="657.0" y2="690.0" stroke="#6B7385" stroke-width="10" stroke-linecap="round"/>
  <!-- Nadel -->
  <path d="M 521.9 569.0 L 701.4 466.5 L 502.1 521.0 Z" fill="#F5F5F7" stroke="#F5F5F7" stroke-width="8" stroke-linejoin="round"/>
  <circle cx="512" cy="545" r="44" fill="#F5F5F7"/>
  <circle cx="512" cy="545" r="16" fill="#111318"/>
</svg>
